<svg id="Layer_1" enable-background="new 0 0 512 512" height="512" viewBox="0 0 512 512" width="512" xmlns="http://www.w3.org/2000/svg"><g><g><g><path d="m122 67.766v292.174c0 16.024 13.036 29.06 29.06 29.06h331.88c16.023 0 29.06-13.036 29.06-29.061v-292.173z" fill="#fff4f4"/></g></g><path d="m317 67.766v321.234h165.94c16.023 0 29.06-13.036 29.06-29.061v-292.173z" fill="#f6efea"/><path d="m434.021 0h-282.961c-16.024 0-29.06 13.036-29.06 29.06v45.94h312.021z" fill="#00429d"/><g><g><circle clip-rule="evenodd" cx="135" cy="377" fill="#fff4f4" fill-rule="evenodd" r="120"/></g></g><path clip-rule="evenodd" d="m136 257.012v239.975c65.636-.542 119-54.228 119-119.988s-53.364-119.445-119-119.987z" fill="#f6efea" fill-rule="evenodd"/><g><g><g><path d="m50.013 287.001c-4.678 0-9.287-2.182-12.215-6.277l-15.437-21.593c-4.818-6.739-3.26-16.108 3.479-20.926 6.739-4.819 16.107-3.261 20.926 3.479l15.437 21.593c4.818 6.739 3.26 16.108-3.479 20.926-2.644 1.889-5.692 2.798-8.711 2.798z" fill="#fdbf00"/></g></g></g><g><g><g><path d="m20.808 272.854c-4.752 0-9.426-2.252-12.339-6.453-4.721-6.807-3.03-16.152 3.777-20.874l25.567-17.731c6.808-4.72 16.153-3.03 20.874 3.778 4.721 6.807 3.03 16.152-3.777 20.874l-25.567 17.731c-2.607 1.807-5.586 2.675-8.535 2.675z" fill="#fdbf00"/></g></g></g><path d="m164 194.001h-56c-8.284 0-15 6.716-15 15s6.716 15 15 15h13.052c-.024.344-.052.687-.052 1.037v24.2c0 8.284 6.716 15 15 15s15-6.716 15-15v-24.2c0-.35-.029-.693-.052-1.037h13.052c8.284 0 15-6.716 15-15s-6.715-15-15-15z" fill="#fdbf00"/><g><path d="m238.129 172c-3.839 0-7.678-1.465-10.606-4.394l-9.129-9.129c-5.858-5.857-5.858-15.355 0-21.213 5.354-5.356 13.755-5.816 19.633-1.376l11.242-11.241c5.857-5.857 15.355-5.857 21.213 0s5.858 15.355 0 21.213l-21.746 21.746c-2.929 2.929-6.768 4.394-10.607 4.394z" fill="#bee75e"/></g><path d="m164 194.001h-28v70.237c8.284 0 15-6.716 15-15v-24.2c0-.35-.029-.693-.052-1.037h13.052c8.284 0 15-6.716 15-15s-6.715-15-15-15z" fill="#ff8856"/><g><path d="m430 161.127h-110c-8.284 0-15-6.716-15-15s6.716-15 15-15h110c8.284 0 15 6.716 15 15s-6.716 15-15 15z" fill="#4793ff"/></g><g><g><g><path d="m238.129 253.746c-3.839 0-7.678-1.465-10.606-4.394l-9.129-9.129c-5.858-5.857-5.858-15.355 0-21.213 5.354-5.356 13.755-5.815 19.633-1.376l11.242-11.241c5.857-5.857 15.355-5.857 21.213 0s5.858 15.355 0 21.213l-21.746 21.746c-2.929 2.929-6.768 4.394-10.607 4.394z" fill="#bee75e"/></g></g></g><g><g><path d="m430 232.001h-110c-8.284 0-15-6.716-15-15s6.716-15 15-15h110c8.284 0 15 6.716 15 15s-6.716 15-15 15z" fill="#4793ff"/></g></g><g><g><path d="m375 292h-55c-8.284 0-15-6.716-15-15s6.716-15 15-15h55c8.284 0 15 6.716 15 15s-6.716 15-15 15z" fill="#4793ff"/></g></g><g><g><path d="m135 291.729c-8.284 0-15-6.716-15-15v-19.729c0-8.284 6.716-15 15-15s15 6.716 15 15v19.729c0 8.284-6.716 15-15 15z" fill="#7dd5f4"/></g></g><g><g><path d="m255 392h-19.729c-8.284 0-15-6.716-15-15s6.716-15 15-15h19.729c8.284 0 15 6.716 15 15s-6.716 15-15 15z" fill="#4793ff"/></g></g><path d="m136 242.051v49.627c7.816-.517 14-7.003 14-14.949v-19.729c0-7.947-6.184-14.433-14-14.949z" fill="#4793ff"/><g><path d="m135 512c-8.284 0-15-6.716-15-15v-19.729c0-8.284 6.716-15 15-15s15 6.716 15 15v19.729c0 8.284-6.716 15-15 15z" fill="#7dd5f4"/></g><path d="m136 462.322v49.627c7.816-.517 14-7.003 14-14.949v-19.729c0-7.946-6.184-14.432-14-14.949z" fill="#4793ff"/><g><g><path d="m34.729 392h-19.729c-8.284 0-15-6.716-15-15s6.716-15 15-15h19.729c8.284 0 15 6.716 15 15s-6.716 15-15 15z" fill="#7dd5f4"/></g></g><g><g><path d="m205.902 321.098c-3.839 0-7.678-1.464-10.607-4.394-5.857-5.858-5.857-15.355 0-21.213l13.951-13.95c5.858-5.858 15.355-5.858 21.213 0 5.857 5.858 5.857 15.355 0 21.213l-13.951 13.95c-2.928 2.929-6.767 4.394-10.606 4.394z" fill="#4793ff"/></g></g><g><g><path d="m219.853 476.853c-3.839 0-7.677-1.465-10.606-4.394l-13.951-13.95c-5.858-5.857-5.858-15.354 0-21.213 5.858-5.857 15.355-5.857 21.213 0l13.951 13.95c5.858 5.857 5.858 15.354 0 21.213-2.929 2.929-6.768 4.394-10.607 4.394z" fill="#4793ff"/></g></g><g><g><path d="m50.147 476.853c-3.839 0-7.678-1.465-10.606-4.394-5.858-5.857-5.858-15.355 0-21.213l13.95-13.95c5.857-5.857 15.355-5.857 21.213 0s5.858 15.355 0 21.213l-13.95 13.95c-2.929 2.929-6.768 4.394-10.607 4.394z" fill="#7dd5f4"/></g></g><g><g><path d="m64.098 321.098c-3.839 0-7.678-1.465-10.606-4.394l-13.95-13.95c-5.858-5.857-5.858-15.355 0-21.213 5.857-5.857 15.355-5.857 21.213 0l13.95 13.95c5.858 5.857 5.858 15.355 0 21.213-2.93 2.929-6.768 4.394-10.607 4.394z" fill="#7dd5f4"/></g></g><g><g><g><path d="m163.5 420.5c-3.839 0-7.678-1.465-10.606-4.394l-28.5-28.5c-2.813-2.812-4.394-6.627-4.394-10.606v-44.271c0-8.284 6.716-15 15-15s15 6.716 15 15v38.059l24.107 24.106c5.858 5.857 5.858 15.355 0 21.213-2.929 2.928-6.768 4.393-10.607 4.393z" fill="#4793ff"/></g></g></g><path d="m482.94 0h-51.175v75h80.235v-45.94c0-16.024-13.036-29.06-29.06-29.06z" fill="#ff435b"/><g><g><path d="m135 512c-74.439 0-135-60.561-135-135s60.561-135 135-135 135 60.561 135 135-60.561 135-135 135zm0-240c-57.897 0-105 47.103-105 105s47.103 105 105 105 105-47.103 105-105-47.103-105-105-105z" fill="#00429d"/></g></g><path d="m136 242.013v30c57.438.54 104 47.424 104 104.987s-46.562 104.448-104 104.987v30c73.98-.541 134-60.882 134-134.987s-60.02-134.447-134-134.987z" fill="#00347b"/><g fill="#525cdd"><path d="m430 131.127h-110c-1.028 0-2.031.104-3 .301v29.397c.969.197 1.972.301 3 .301h110c8.284 0 15-6.716 15-15s-6.716-14.999-15-14.999z"/><path d="m430 202.001h-110c-1.028 0-2.031.104-3 .301v29.398c.969.197 1.972.301 3 .301h110c8.284 0 15-6.716 15-15s-6.716-15-15-15z"/><path d="m375 262h-55c-1.028 0-2.031.104-3 .301v29.397c.969.197 1.972.301 3 .301h55c8.284 0 15-6.716 15-15s-6.716-14.999-15-14.999z"/></g><path d="m317 0h117.021v75h-117.021z" fill="#00347b"/><path d="m174.107 394.894-24.107-24.107v-38.059c0-7.947-6.184-14.433-14-14.949v81.434l16.894 16.894c2.929 2.929 6.768 4.394 10.606 4.394s7.678-1.465 10.606-4.394c5.859-5.858 5.859-15.356.001-21.213z" fill="#525cdd"/></g></svg>